ffmpeg started on 2025-06-15 at 19:51:39
Report written to "D:\Convert\FFMetrics\reports\psnr_report-6.txt"
Log level: 32
Command line:
ffmpeg -hide_banner -nostdin -i "G:\\\xc0\xed\xe8\xec\xe5\\[\xd2\xee\xef]\\\xd1\xea\xe0\xe7\xe0\xed\xe8\xe5 \xee\xe1 \xee\xe1\xf0\xf3\xf7\xe0\xeb\xfc\xed\xfb\xf5 \xea\xee\xeb\xfc\xf6\xe0\xf5\\[DC] Kekkon Yubiwa Monogatari - 07_Telegram_HEVC.mkv" -i "G:\\\xc0\xed\xe8\xec\xe5\\[\xd2\xee\xef]\\\xd1\xea\xe0\xe7\xe0\xed\xe8\xe5 \xee\xe1 \xee\xe1\xf0\xf3\xf7\xe0\xeb\xfc\xed\xfb\xf5 \xea\xee\xeb\xfc\xf6\xe0\xf5\\[DC] Kekkon Yubiwa Monogatari - 07_Telegram.mp4" -lavfi "[0:v]settb=AVTB,setpts=PTS-STARTPTS,format=pix_fmts=yuv420p10,fps=24000/1001,scale=1920:1080:flags=bicubic[main];[1:v]settb=AVTB,setpts=PTS-STARTPTS,format=pix_fmts=yuv420p,fps=24000/1001,scale=1920:1080:flags=bicubic[ref];[main][ref]psnr=eof_action=endall:stats_file='D\\:/Convert/FFMetrics/logs/psnr_logfile-6.txt'" -f null -
Input #0, matroska,webm, from 'G:\Аниме\[Топ]\Сказание об обручальных кольцах\[DC] Kekkon Yubiwa Monogatari - 07_Telegram_HEVC.mkv':
  Metadata:
    COMPATIBLE_BRANDS: isomiso2avc1mp41
    MAJOR_BRAND     : isom
    MINOR_VERSION   : 512
    ENCODER         : Lavf61.7.100
  Duration: 00:23:47.67, start: -0.021000, bitrate: 1316 kb/s
  Stream #0:0: Video: hevc (Main 10), yuv420p10le(tv, bt709, progressive), 1920x1080 [SAR 1:1 DAR 16:9], 23.98 fps, 23.98 tbr, 1k tbn (default)
      Metadata:
        HANDLER_NAME    : VideoHandler
        VENDOR_ID       : [0][0][0][0]
        ENCODER         : Lavc61.19.100 libx265
        BPS             : 1117300
        DURATION        : 00:23:46.549708333
        NUMBER_OF_FRAMES: 34203
        NUMBER_OF_BYTES : 199235482
        _STATISTICS_WRITING_APP: mkvpropedit v66.0.0 ('Josie') 64-bit
        _STATISTICS_WRITING_DATE_UTC: 2025-06-15 15:10:04
        _STATISTICS_TAGS: BPS DURATION NUMBER_OF_FRAMES NUMBER_OF_BYTES
  Stream #0:1: Audio: aac (LC), 48000 Hz, stereo, fltp (default)
      Metadata:
        HANDLER_NAME    : SoundHandler
        VENDOR_ID       : [0][0][0][0]
        ENCODER         : Lavc61.19.100 aac
        BPS             : 196413
        DURATION        : 00:23:47.669000000
        NUMBER_OF_FRAMES: 66923
        NUMBER_OF_BYTES : 35051644
        _STATISTICS_WRITING_APP: mkvpropedit v66.0.0 ('Josie') 64-bit
        _STATISTICS_WRITING_DATE_UTC: 2025-06-15 15:10:04
        _STATISTICS_TAGS: BPS DURATION NUMBER_OF_FRAMES NUMBER_OF_BYTES
Input #1, mov,mp4,m4a,3gp,3g2,mj2, from 'G:\Аниме\[Топ]\Сказание об обручальных кольцах\[DC] Kekkon Yubiwa Monogatari - 07_Telegram.mp4':
  Metadata:
    major_brand     : isom
    minor_version   : 512
    compatible_brands: isomiso2avc1mp41
    encoder         : Lavf60.16.100
  Duration: 00:23:47.61, start: 0.000000, bitrate: 3880 kb/s
  Stream #1:0[0x1](und): Video: h264 (High) (avc1 / 0x31637661), yuv420p(tv, bt709, progressive), 1920x1080 [SAR 1:1 DAR 16:9], 3735 kb/s, 23.98 fps, 23.98 tbr, 24k tbn (default)
      Metadata:
        handler_name    : VideoHandler
        vendor_id       : [0][0][0][0]
        encoder         : Lavc60.31.102 h264_qsv
  Stream #1:1[0x2](und): Audio: aac (HE-AACv2) (mp4a / 0x6134706D), 48000 Hz, stereo, fltp, 144 kb/s (default)
      Metadata:
        handler_name    : SoundHandler
        vendor_id       : [0][0][0][0]
Stream mapping:
  Stream #0:0 (hevc) -> settb:default
  Stream #1:0 (h264) -> settb:default
  psnr:default -> Stream #0:0 (wrapped_avframe)
  Stream #0:1 -> #0:1 (aac (native) -> pcm_s16le (native))
Output #0, null, to 'pipe:':
  Metadata:
    COMPATIBLE_BRANDS: isomiso2avc1mp41
    MAJOR_BRAND     : isom
    MINOR_VERSION   : 512
    encoder         : Lavf61.7.100
  Stream #0:0: Video: wrapped_avframe, yuv420p10le(tv, bt709, progressive), 1920x1080 [SAR 1:1 DAR 16:9], q=2-31, 200 kb/s, 23.98 fps, 23.98 tbn
      Metadata:
        encoder         : Lavc61.19.100 wrapped_avframe
  Stream #0:1: Audio: pcm_s16le, 48000 Hz, stereo, s16, 1536 kb/s (default)
      Metadata:
        HANDLER_NAME    : SoundHandler
        VENDOR_ID       : [0][0][0][0]
        _STATISTICS_TAGS: BPS DURATION NUMBER_OF_FRAMES NUMBER_OF_BYTES
        BPS             : 196413
        DURATION        : 00:23:47.669000000
        NUMBER_OF_FRAMES: 66923
        NUMBER_OF_BYTES : 35051644
        _STATISTICS_WRITING_APP: mkvpropedit v66.0.0 ('Josie') 64-bit
        _STATISTICS_WRITING_DATE_UTC: 2025-06-15 15:10:04
        encoder         : Lavc61.19.100 pcm_s16le
frame=  168 fps=0.0 q=-0.0 size=N/A time=00:00:07.00 bitrate=N/A speed=13.6x    frame=  342 fps=330 q=-0.0 size=N/A time=00:00:14.26 bitrate=N/A speed=13.8x    frame=  538 fps=349 q=-0.0 size=N/A time=00:00:22.43 bitrate=N/A speed=14.5x    frame=  730 fps=353 q=-0.0 size=N/A time=00:00:30.44 bitrate=N/A speed=14.7x    frame=  984 fps=382 q=-0.0 size=N/A time=00:00:41.04 bitrate=N/A speed=15.9x    frame= 1199 fps=388 q=-0.0 size=N/A time=00:00:50.00 bitrate=N/A speed=16.2x    frame= 1410 fps=390 q=-0.0 size=N/A time=00:00:58.80 bitrate=N/A speed=16.3x    frame= 1652 fps=401 q=-0.0 size=N/A time=00:01:08.90 bitrate=N/A speed=16.7x    frame= 1874 fps=404 q=-0.0 size=N/A time=00:01:18.16 bitrate=N/A speed=16.9x    frame= 2103 fps=407 q=-0.0 size=N/A time=00:01:27.71 bitrate=N/A speed=  17x    frame= 2340 fps=413 q=-0.0 size=N/A time=00:01:37.59 bitrate=N/A speed=17.2x    frame= 2605 fps=421 q=-0.0 size=N/A time=00:01:48.65 bitrate=N/A speed=17.5x    frame= 2856 fps=426 q=-0.0 size=N/A time=00:01:59.11 bitrate=N/A speed=17.8x    frame= 3053 fps=423 q=-0.0 size=N/A time=00:02:07.33 bitrate=N/A speed=17.6x    frame= 3235 fps=418 q=-0.0 size=N/A time=00:02:14.92 bitrate=N/A speed=17.4x    frame= 3436 fps=417 q=-0.0 size=N/A time=00:02:23.30 bitrate=N/A speed=17.4x    frame= 3668 fps=418 q=-0.0 size=N/A time=00:02:32.98 bitrate=N/A speed=17.4x    frame= 3895 fps=420 q=-0.0 size=N/A time=00:02:42.45 bitrate=N/A speed=17.5x    frame= 4036 fps=412 q=-0.0 size=N/A time=00:02:48.33 bitrate=N/A speed=17.2x    frame= 4256 fps=413 q=-0.0 size=N/A time=00:02:57.51 bitrate=N/A speed=17.2x    frame= 4411 fps=408 q=-0.0 size=N/A time=00:03:03.97 bitrate=N/A speed=  17x    frame= 4570 fps=403 q=-0.0 size=N/A time=00:03:10.60 bitrate=N/A speed=16.8x    frame= 4794 fps=404 q=-0.0 size=N/A time=00:03:19.94 bitrate=N/A speed=16.9x    frame= 4998 fps=404 q=-0.0 size=N/A time=00:03:28.45 bitrate=N/A speed=16.8x    frame= 5239 fps=406 q=-0.0 size=N/A time=00:03:38.50 bitrate=N/A speed=  17x    frame= 5497 fps=410 q=-0.0 size=N/A time=00:03:49.27 bitrate=N/A speed=17.1x    frame= 5734 fps=411 q=-0.0 size=N/A time=00:03:59.15 bitrate=N/A speed=17.2x    frame= 5998 fps=415 q=-0.0 size=N/A time=00:04:10.16 bitrate=N/A speed=17.3x    frame= 6246 fps=417 q=-0.0 size=N/A time=00:04:20.51 bitrate=N/A speed=17.4x    frame= 6494 fps=419 q=-0.0 size=N/A time=00:04:30.85 bitrate=N/A speed=17.5x    frame= 6746 fps=422 q=-0.0 size=N/A time=00:04:41.36 bitrate=N/A speed=17.6x    frame= 7031 fps=426 q=-0.0 size=N/A time=00:04:53.25 bitrate=N/A speed=17.7x    frame= 7224 fps=424 q=-0.0 size=N/A time=00:05:01.30 bitrate=N/A speed=17.7x    frame= 7448 fps=424 q=-0.0 size=N/A time=00:05:10.64 bitrate=N/A speed=17.7x    frame= 7668 fps=425 q=-0.0 size=N/A time=00:05:19.81 bitrate=N/A speed=17.7x    frame= 7875 fps=424 q=-0.0 size=N/A time=00:05:28.45 bitrate=N/A speed=17.7x    frame= 8086 fps=423 q=-0.0 size=N/A time=00:05:37.25 bitrate=N/A speed=17.7x    frame= 8298 fps=423 q=-0.0 size=N/A time=00:05:46.09 bitrate=N/A speed=17.7x    frame= 8516 fps=423 q=-0.0 size=N/A time=00:05:55.18 bitrate=N/A speed=17.6x    frame= 8734 fps=423 q=-0.0 size=N/A time=00:06:04.28 bitrate=N/A speed=17.7x    frame= 8958 fps=423 q=-0.0 size=N/A time=00:06:13.62 bitrate=N/A speed=17.7x    frame= 9179 fps=423 q=-0.0 size=N/A time=00:06:22.84 bitrate=N/A speed=17.7x    frame= 9406 fps=424 q=-0.0 size=N/A time=00:06:32.30 bitrate=N/A speed=17.7x    frame= 9605 fps=423 q=-0.0 size=N/A time=00:06:40.60 bitrate=N/A speed=17.6x    frame= 9834 fps=423 q=-0.0 size=N/A time=00:06:50.15 bitrate=N/A speed=17.6x    frame=10072 fps=424 q=-0.0 size=N/A time=00:07:00.08 bitrate=N/A speed=17.7x    frame=10284 fps=424 q=-0.0 size=N/A time=00:07:08.92 bitrate=N/A speed=17.7x    frame=10461 fps=422 q=-0.0 size=N/A time=00:07:16.31 bitrate=N/A speed=17.6x    frame=10674 fps=422 q=-0.0 size=N/A time=00:07:25.19 bitrate=N/A speed=17.6x    frame=10868 fps=421 q=-0.0 size=N/A time=00:07:33.28 bitrate=N/A speed=17.6x    frame=11098 fps=422 q=-0.0 size=N/A time=00:07:42.87 bitrate=N/A speed=17.6x    frame=11337 fps=422 q=-0.0 size=N/A time=00:07:52.84 bitrate=N/A speed=17.6x    frame=11545 fps=422 q=-0.0 size=N/A time=00:08:01.52 bitrate=N/A speed=17.6x    frame=11792 fps=423 q=-0.0 size=N/A time=00:08:11.82 bitrate=N/A speed=17.6x    frame=12040 fps=424 q=-0.0 size=N/A time=00:08:22.16 bitrate=N/A speed=17.7x    frame=12299 fps=425 q=-0.0 size=N/A time=00:08:32.97 bitrate=N/A speed=17.7x    frame=12540 fps=426 q=-0.0 size=N/A time=00:08:43.02 bitrate=N/A speed=17.8x    frame=12768 fps=426 q=-0.0 size=N/A time=00:08:52.53 bitrate=N/A speed=17.8x    frame=13001 fps=427 q=-0.0 size=N/A time=00:09:02.25 bitrate=N/A speed=17.8x    frame=13250 fps=428 q=-0.0 size=N/A time=00:09:12.63 bitrate=N/A speed=17.8x    frame=13511 fps=429 q=-0.0 size=N/A time=00:09:23.52 bitrate=N/A speed=17.9x    frame=13746 fps=430 q=-0.0 size=N/A time=00:09:33.32 bitrate=N/A speed=17.9x    frame=13978 fps=430 q=-0.0 size=N/A time=00:09:42.99 bitrate=N/A speed=17.9x    frame=14214 fps=430 q=-0.0 size=N/A time=00:09:52.84 bitrate=N/A speed=17.9x    frame=14458 fps=431 q=-0.0 size=N/A time=00:10:03.01 bitrate=N/A speed=  18x    frame=14706 fps=432 q=-0.0 size=N/A time=00:10:13.36 bitrate=N/A speed=  18x    frame=14934 fps=432 q=-0.0 size=N/A time=00:10:22.87 bitrate=N/A speed=  18x    frame=15176 fps=432 q=-0.0 size=N/A time=00:10:32.96 bitrate=N/A speed=  18x    frame=15440 fps=434 q=-0.0 size=N/A time=00:10:43.97 bitrate=N/A speed=18.1x    frame=15663 fps=434 q=-0.0 size=N/A time=00:10:53.27 bitrate=N/A speed=18.1x    frame=15913 fps=434 q=-0.0 size=N/A time=00:11:03.70 bitrate=N/A speed=18.1x    frame=16161 fps=435 q=-0.0 size=N/A time=00:11:14.04 bitrate=N/A speed=18.1x    frame=16427 fps=436 q=-0.0 size=N/A time=00:11:25.14 bitrate=N/A speed=18.2x    frame=16685 fps=437 q=-0.0 size=N/A time=00:11:35.90 bitrate=N/A speed=18.2x    frame=16929 fps=437 q=-0.0 size=N/A time=00:11:46.08 bitrate=N/A speed=18.2x    frame=17180 fps=438 q=-0.0 size=N/A time=00:11:56.54 bitrate=N/A speed=18.3x    frame=17432 fps=439 q=-0.0 size=N/A time=00:12:07.05 bitrate=N/A speed=18.3x    frame=17678 fps=439 q=-0.0 size=N/A time=00:12:17.31 bitrate=N/A speed=18.3x    frame=17884 fps=439 q=-0.0 size=N/A time=00:12:25.91 bitrate=N/A speed=18.3x    frame=18100 fps=438 q=-0.0 size=N/A time=00:12:34.92 bitrate=N/A speed=18.3x    frame=18342 fps=439 q=-0.0 size=N/A time=00:12:45.01 bitrate=N/A speed=18.3x    frame=18581 fps=439 q=-0.0 size=N/A time=00:12:54.98 bitrate=N/A speed=18.3x    frame=18820 fps=439 q=-0.0 size=N/A time=00:13:04.95 bitrate=N/A speed=18.3x    frame=19039 fps=439 q=-0.0 size=N/A time=00:13:14.08 bitrate=N/A speed=18.3x    frame=19264 fps=439 q=-0.0 size=N/A time=00:13:23.46 bitrate=N/A speed=18.3x    frame=19508 fps=440 q=-0.0 size=N/A time=00:13:33.64 bitrate=N/A speed=18.3x    frame=19732 fps=440 q=-0.0 size=N/A time=00:13:42.98 bitrate=N/A speed=18.3x    frame=19962 fps=440 q=-0.0 size=N/A time=00:13:52.58 bitrate=N/A speed=18.3x    frame=20174 fps=439 q=-0.0 size=N/A time=00:14:01.42 bitrate=N/A speed=18.3x    frame=20420 fps=440 q=-0.0 size=N/A time=00:14:11.68 bitrate=N/A speed=18.3x    frame=20667 fps=440 q=-0.0 size=N/A time=00:14:21.98 bitrate=N/A speed=18.4x    frame=20915 fps=441 q=-0.0 size=N/A time=00:14:32.32 bitrate=N/A speed=18.4x    frame=21154 fps=441 q=-0.0 size=N/A time=00:14:42.29 bitrate=N/A speed=18.4x    frame=21415 fps=441 q=-0.0 size=N/A time=00:14:53.18 bitrate=N/A speed=18.4x    frame=21674 fps=442 q=-0.0 size=N/A time=00:15:03.98 bitrate=N/A speed=18.4x    frame=21922 fps=443 q=-0.0 size=N/A time=00:15:14.33 bitrate=N/A speed=18.5x    frame=22136 fps=442 q=-0.0 size=N/A time=00:15:23.25 bitrate=N/A speed=18.4x    frame=22336 fps=442 q=-0.0 size=N/A time=00:15:31.59 bitrate=N/A speed=18.4x    frame=22580 fps=442 q=-0.0 size=N/A time=00:15:41.77 bitrate=N/A speed=18.4x    frame=22846 fps=443 q=-0.0 size=N/A time=00:15:52.86 bitrate=N/A speed=18.5x    frame=23079 fps=443 q=-0.0 size=N/A time=00:16:02.58 bitrate=N/A speed=18.5x    frame=23315 fps=443 q=-0.0 size=N/A time=00:16:12.42 bitrate=N/A speed=18.5x    frame=23544 fps=443 q=-0.0 size=N/A time=00:16:21.98 bitrate=N/A speed=18.5x    frame=23789 fps=443 q=-0.0 size=N/A time=00:16:32.19 bitrate=N/A speed=18.5x    frame=24041 fps=444 q=-0.0 size=N/A time=00:16:42.71 bitrate=N/A speed=18.5x    frame=24264 fps=444 q=-0.0 size=N/A time=00:16:52.01 bitrate=N/A speed=18.5x    frame=24491 fps=443 q=-0.0 size=N/A time=00:17:01.47 bitrate=N/A speed=18.5x    frame=24725 fps=444 q=-0.0 size=N/A time=00:17:11.23 bitrate=N/A speed=18.5x    frame=24952 fps=444 q=-0.0 size=N/A time=00:17:20.70 bitrate=N/A speed=18.5x    frame=25122 fps=443 q=-0.0 size=N/A time=00:17:27.79 bitrate=N/A speed=18.5x    frame=25324 fps=442 q=-0.0 size=N/A time=00:17:36.22 bitrate=N/A speed=18.4x    frame=25548 fps=442 q=-0.0 size=N/A time=00:17:45.56 bitrate=N/A speed=18.4x    frame=25774 fps=442 q=-0.0 size=N/A time=00:17:54.99 bitrate=N/A speed=18.4x    frame=26002 fps=442 q=-0.0 size=N/A time=00:18:04.50 bitrate=N/A speed=18.4x    frame=26207 fps=442 q=-0.0 size=N/A time=00:18:13.05 bitrate=N/A speed=18.4x    frame=26408 fps=441 q=-0.0 size=N/A time=00:18:21.43 bitrate=N/A speed=18.4x    frame=26614 fps=441 q=-0.0 size=N/A time=00:18:30.02 bitrate=N/A speed=18.4x    frame=26842 fps=441 q=-0.0 size=N/A time=00:18:39.53 bitrate=N/A speed=18.4x    frame=27082 fps=441 q=-0.0 size=N/A time=00:18:49.54 bitrate=N/A speed=18.4x    frame=27300 fps=441 q=-0.0 size=N/A time=00:18:58.63 bitrate=N/A speed=18.4x    frame=27521 fps=441 q=-0.0 size=N/A time=00:19:07.85 bitrate=N/A speed=18.4x    frame=27718 fps=440 q=-0.0 size=N/A time=00:19:16.07 bitrate=N/A speed=18.4x    frame=27948 fps=440 q=-0.0 size=N/A time=00:19:25.66 bitrate=N/A speed=18.4x    frame=28162 fps=440 q=-0.0 size=N/A time=00:19:34.59 bitrate=N/A speed=18.4x    frame=28399 fps=440 q=-0.0 size=N/A time=00:19:44.47 bitrate=N/A speed=18.4x    frame=28650 fps=441 q=-0.0 size=N/A time=00:19:54.94 bitrate=N/A speed=18.4x    frame=28911 fps=441 q=-0.0 size=N/A time=00:20:05.82 bitrate=N/A speed=18.4x    frame=29159 fps=441 q=-0.0 size=N/A time=00:20:16.17 bitrate=N/A speed=18.4x    frame=29399 fps=442 q=-0.0 size=N/A time=00:20:26.18 bitrate=N/A speed=18.4x    frame=29633 fps=442 q=-0.0 size=N/A time=00:20:35.94 bitrate=N/A speed=18.4x    frame=29833 fps=441 q=-0.0 size=N/A time=00:20:44.28 bitrate=N/A speed=18.4x    frame=30055 fps=441 q=-0.0 size=N/A time=00:20:53.54 bitrate=N/A speed=18.4x    frame=30283 fps=441 q=-0.0 size=N/A time=00:21:03.05 bitrate=N/A speed=18.4x    frame=30547 fps=442 q=-0.0 size=N/A time=00:21:14.06 bitrate=N/A speed=18.4x    frame=30795 fps=442 q=-0.0 size=N/A time=00:21:24.40 bitrate=N/A speed=18.4x    frame=31054 fps=442 q=-0.0 size=N/A time=00:21:35.21 bitrate=N/A speed=18.5x    frame=31306 fps=443 q=-0.0 size=N/A time=00:21:45.72 bitrate=N/A speed=18.5x    frame=31567 fps=443 q=-0.0 size=N/A time=00:21:56.60 bitrate=N/A speed=18.5x    frame=31819 fps=444 q=-0.0 size=N/A time=00:22:07.11 bitrate=N/A speed=18.5x    frame=32074 fps=444 q=-0.0 size=N/A time=00:22:17.75 bitrate=N/A speed=18.5x    frame=32254 fps=443 q=-0.0 size=N/A time=00:22:25.26 bitrate=N/A speed=18.5x    frame=32454 fps=443 q=-0.0 size=N/A time=00:22:33.60 bitrate=N/A speed=18.5x    frame=32658 fps=443 q=-0.0 size=N/A time=00:22:42.11 bitrate=N/A speed=18.5x    frame=32872 fps=442 q=-0.0 size=N/A time=00:22:51.03 bitrate=N/A speed=18.5x    frame=33088 fps=442 q=-0.0 size=N/A time=00:23:00.04 bitrate=N/A speed=18.4x    frame=33285 fps=442 q=-0.0 size=N/A time=00:23:08.26 bitrate=N/A speed=18.4x    frame=33503 fps=442 q=-0.0 size=N/A time=00:23:17.35 bitrate=N/A speed=18.4x    frame=33683 fps=441 q=-0.0 size=N/A time=00:23:24.86 bitrate=N/A speed=18.4x    frame=33870 fps=440 q=-0.0 size=N/A time=00:23:32.66 bitrate=N/A speed=18.4x    frame=34058 fps=440 q=-0.0 size=N/A time=00:23:40.50 bitrate=N/A speed=18.3x    [Parsed_psnr_10 @ 000002c6fdd32900] PSNR y:47.603050 u:49.739358 v:49.804572 average:48.213010 min:42.061522 max:inf
[out#0/null @ 000002c6fba6ca80] video:14697KiB audio:267692KiB subtitle:0KiB other streams:0KiB global headers:0KiB muxing overhead: unknown
frame=34203 fps=440 q=-0.0 Lsize=N/A time=00:23:46.55 bitrate=N/A speed=18.3x    
